REM DIRINDEX 1\2,1\3,1\4,1\5\6,1\5\7,1\8
REM DIRNAME cjc115,folder01,folder02,folder03,folder04,folder05,folder06,folder07
TITLE ""
FILE "167 Åy167ÅzUnit10 (1885 follow up on Å`_1896 as such).mp3" MP3
  TRACK 01 AUDIO
    TITLE "0:"
    INDEX 01 00:00:00
  TRACK 02 AUDIO
    TITLE "2:cjc115_6538"
    INDEX 01 00:00:01
  TRACK 03 AUDIO
    TITLE "0:"
    INDEX 01 00:01:40
  TRACK 04 AUDIO
    TITLE "3:cjc115_6539"
    INDEX 01 00:01:52
  TRACK 05 AUDIO
    TITLE "0:"
    INDEX 01 00:03:55
  TRACK 06 AUDIO
    TITLE "4:cjc115_6540"
    INDEX 01 00:03:64
  TRACK 07 AUDIO
    TITLE "0:"
    INDEX 01 00:06:71
  TRACK 08 AUDIO
    TITLE "2:cjc115_6541"
    INDEX 01 00:08:03
  TRACK 09 AUDIO
    TITLE "0:"
    INDEX 01 00:09:32
  TRACK 10 AUDIO
    TITLE "3:cjc115_6542"
    INDEX 01 00:09:42
  TRACK 11 AUDIO
    TITLE "0:"
    INDEX 01 00:11:70
  TRACK 12 AUDIO
    TITLE "4:cjc115_6543"
    INDEX 01 00:12:03
  TRACK 13 AUDIO
    TITLE "0:"
    INDEX 01 00:15:17
  TRACK 14 AUDIO
    TITLE "2:cjc115_6544"
    INDEX 01 00:16:24
  TRACK 15 AUDIO
    TITLE "0:"
    INDEX 01 00:17:41
  TRACK 16 AUDIO
    TITLE "3:cjc115_6545"
    INDEX 01 00:17:49
  TRACK 17 AUDIO
    TITLE "0:"
    INDEX 01 00:20:36
  TRACK 18 AUDIO
    TITLE "4:cjc115_6546"
    INDEX 01 00:20:47
  TRACK 19 AUDIO
    TITLE "0:"
    INDEX 01 00:24:10
  TRACK 20 AUDIO
    TITLE "2:cjc115_6547"
    INDEX 01 00:25:21
  TRACK 21 AUDIO
    TITLE "0:"
    INDEX 01 00:26:46
  TRACK 22 AUDIO
    TITLE "3:cjc115_6548"
    INDEX 01 00:26:60
  TRACK 23 AUDIO
    TITLE "0:"
    INDEX 01 00:29:52
  TRACK 24 AUDIO
    TITLE "4:cjc115_6549"
    INDEX 01 00:29:62
  TRACK 25 AUDIO
    TITLE "0:"
    INDEX 01 00:32:31
  TRACK 26 AUDIO
    TITLE "2:cjc115_6550"
    INDEX 01 00:33:38
  TRACK 27 AUDIO
    TITLE "0:"
    INDEX 01 00:34:55
  TRACK 28 AUDIO
    TITLE "3:cjc115_6551"
    INDEX 01 00:34:67
  TRACK 29 AUDIO
    TITLE "0:"
    INDEX 01 00:38:43
  TRACK 30 AUDIO
    TITLE "4:cjc115_6552"
    INDEX 01 00:38:57
  TRACK 31 AUDIO
    TITLE "0:"
    INDEX 01 00:42:35
  TRACK 32 AUDIO
    TITLE "2:cjc115_6553"
    INDEX 01 00:43:46
  TRACK 33 AUDIO
    TITLE "0:"
    INDEX 01 00:44:61
  TRACK 34 AUDIO
    TITLE "3:cjc115_6554"
    INDEX 01 00:45:02
  TRACK 35 AUDIO
    TITLE "0:"
    INDEX 01 00:47:23
  TRACK 36 AUDIO
    TITLE "4:cjc115_6555"
    INDEX 01 00:47:34
  TRACK 37 AUDIO
    TITLE "0:"
    INDEX 01 00:52:22
  TRACK 38 AUDIO
    TITLE "2:cjc115_6556"
    INDEX 01 00:53:31
  TRACK 39 AUDIO
    TITLE "0:"
    INDEX 01 00:54:58
  TRACK 40 AUDIO
    TITLE "3:cjc115_6557"
    INDEX 01 00:54:60
  TRACK 41 AUDIO
    TITLE "0:"
    INDEX 01 00:57:01
  TRACK 42 AUDIO
    TITLE "4:cjc115_6558"
    INDEX 01 00:57:11
  TRACK 43 AUDIO
    TITLE "0:"
    INDEX 01 00:59:73
  TRACK 44 AUDIO
    TITLE "2:cjc115_6559"
    INDEX 01 01:01:09
  TRACK 45 AUDIO
    TITLE "0:"
    INDEX 01 01:02:22
  TRACK 46 AUDIO
    TITLE "3:cjc115_6560"
    INDEX 01 01:02:34
  TRACK 47 AUDIO
    TITLE "0:"
    INDEX 01 01:04:29
  TRACK 48 AUDIO
    TITLE "4:cjc115_6561"
    INDEX 01 01:04:35
  TRACK 49 AUDIO
    TITLE "0:"
    INDEX 01 01:07:59
  TRACK 50 AUDIO
    TITLE "2:cjc115_6562"
    INDEX 01 01:08:66
  TRACK 51 AUDIO
    TITLE "0:"
    INDEX 01 01:10:02
  TRACK 52 AUDIO
    TITLE "3:cjc115_6563"
    INDEX 01 01:10:24
  TRACK 53 AUDIO
    TITLE "0:"
    INDEX 01 01:13:28
  TRACK 54 AUDIO
    TITLE "4:cjc115_6564"
    INDEX 01 01:13:36
  TRACK 55 AUDIO
    TITLE "0:"
    INDEX 01 01:17:41
  TRACK 56 AUDIO
    TITLE "2:cjc115_6565"
    INDEX 01 01:18:49
  TRACK 57 AUDIO
    TITLE "0:"
    INDEX 01 01:20:10
  TRACK 58 AUDIO
    TITLE "3:cjc115_6566"
    INDEX 01 01:20:24
  TRACK 59 AUDIO
    TITLE "0:"
    INDEX 01 01:23:46
  TRACK 60 AUDIO
    TITLE "4:cjc115_6567"
    INDEX 01 01:23:58
  TRACK 61 AUDIO
    TITLE "0:"
    INDEX 01 01:27:03
  TRACK 62 AUDIO
    TITLE "2:cjc115_6568"
    INDEX 01 01:28:06
  TRACK 63 AUDIO
    TITLE "0:"
    INDEX 01 01:29:25
  TRACK 64 AUDIO
    TITLE "3:cjc115_6569"
    INDEX 01 01:29:35
  TRACK 65 AUDIO
    TITLE "0:"
    INDEX 01 01:30:40
  TRACK 66 AUDIO
    TITLE "4:cjc115_6570"
    INDEX 01 01:30:52
  TRACK 67 AUDIO
    TITLE "0:"
    INDEX 01 01:33:19
  TRACK 68 AUDIO
    TITLE "2:cjc115_6571"
    INDEX 01 01:34:32
  TRACK 69 AUDIO
    TITLE "0:"
    INDEX 01 01:35:55
  TRACK 70 AUDIO
    TITLE "3:cjc115_6572"
    INDEX 01 01:35:65
  TRACK 71 AUDIO
    TITLE "0:"
    INDEX 01 01:37:69
  TRACK 72 AUDIO
    TITLE "4:cjc115_6573"
    INDEX 01 01:37:73
  TRACK 73 AUDIO
    TITLE "0:"
    INDEX 01 01:43:11
